<?xml version="1.0" encoding="utf-8"?>
<!-- Generator: Adobe Illustrator 26.0.2, SVG Export Plug-In . SVG Version: 6.00 Build 0)  -->
<svg version="1.1" id="Layer_1" xmlns="http://www.w3.org/2000/svg" xmlns:xlink="http://www.w3.org/1999/xlink" x="0px" y="0px"
	 viewBox="0 0 85 85" style="enable-background:new 0 0 85 85;" xml:space="preserve">
<style type="text/css">
	.st0{fill:#ED0BFF;}
	.st1{fill:#FFFFFF;}
</style>
<path class="st0" d="M83.9,64.5c-0.2-0.3-2.5-2.4-9.9-0.8c-1.8,0.4-3.9-0.1-4.7-0.3c0-0.6-0.3-1.3-0.7-1.9c0.1,0,0.2,0,0.3,0
	c0.5,0,1-0.1,1.4-0.3c0.7-0.3,1.1-0.9,1.3-1.7c0.2-0.9-0.2-1.7-0.6-2.3c0.5-0.3,0.9-0.7,1.1-1.3c0.7-2.3-0.4-3.1-1.9-4.2
	c-0.3-0.2-0.7-0.5-1.1-0.8L69,50.8c0.4-0.9,0.6-2.1,0.7-2.9c0.1,0.1,0.3,0.2,0.5,0.3c1.8,1,3.6,1.4,5,1.7c1.8,0.4,2.8,0.6,3.1,1.5
	c0.1,0.3,0.4,0.5,0.7,0.5c0.1,0,0.2,0,0.3,0c0.4-0.1,0.6-0.6,0.4-1c-0.6-1.6-2.3-2-4.2-2.4c-1.4-0.3-3-0.6-4.6-1.5
	c-3.3-1.8-2.7-6.7-2.7-6.8c0-0.3-0.1-0.6-0.3-0.7c0,0-1.8-1.1-4.3-2.6c-1.4-0.8-2.7-2.5-2.4-3.4c0.2-0.6,1.2-0.7,1.8-0.7
	c0,0,0.1,0,0.1,0c4.1,0,9.2,5.6,9.2,5.7c0.3,0.3,0.7,0.3,1,0.1c0.3-0.3,0.3-0.7,0.1-1c-0.1-0.1-0.5-0.6-1.3-1.3
	c4.3,0.4,5.6,2,8.5,5.4c0.6,0.7,1.2,1.5,2,2.3c0.1,0.2,0.4,0.2,0.6,0.2c0.2,0,0.4-0.1,0.5-0.2c0.3-0.3,0.3-0.7,0.1-1
	c-0.7-0.8-1.4-1.6-2-2.3c-3.4-4-5-5.8-11.5-6.1c-2-1.6-4.8-3.3-7.4-3.2c-2.3,0.1-3,1-3.2,1.9c-0.1,0.2-0.1,0.5-0.1,0.7
	c-1.9,0.1-3.6,0.8-4.7,1.4c-0.3-2.5-0.5-4.5-0.7-5.8c0-0.4,0-0.8-0.1-1.1c-1.4-7.2-14.5-10.5-29.2-7.4c-1.8,0.4-3.6,0.8-5.2,1.4
	c0.1-2.5,0.4-4.5,0.5-5.7c0.1-2.8,0.5-5.4,0-7.9c-0.5-2.7-1.8-4.6-3.7-5.4S12,2.8,10,4.2c-4.2,3-5.1,8.6-3.1,19.2
	c-0.6-0.4-1.2-0.6-2-0.5c-0.8,0-1.4,0.6-1.9,1.2c-0.6,1,0.1,3.4,1.7,6.4c-3,2.9-4.6,6.1-4,9.1c0.1,0.6,0.3,1.1,0.6,1.7
	c0.6,3.6,4,19.9,12.2,28.1c7.8,7.7,16.8,9.6,18.3,9.3c1.5-0.3,14.4-3.6,14.4-3.6S51.3,73,54,62.5c1,0.6,3,1.6,5.1,1.1
	c1-0.2,1.8-0.6,2.5-1c2.1,1.6,4.1,2.5,5.5,2.5c0.4,0,0.7-0.1,1-0.2c0.2-0.1,0.4-0.2,0.6-0.4c0.7,0.2,3.3,0.9,5.6,0.4
	c6.6-1.4,8.5,0.4,8.5,0.4c0.1,0.2,0.3,0.2,0.5,0.2c0.2,0,0.4-0.1,0.5-0.2C84.2,65.3,84.2,64.8,83.9,64.5z M29.6,44.9
	c-13.5,2.9-25.4,0.4-26.5-5.6c-0.4-2.2,0.7-4.5,2.8-6.7C8,35.9,10.8,39.4,14,42l0,0c-1.1,0.8-1.7,1.4-1.7,1.4
	c23.9,3.1,36.5-10.6,36.5-10.6c-0.3-3.9-10-5.7-17-2.1c-5.7,3-3.6,8.1-8.1,8.5c-3.3-4.1-4.1-9.5-4.1-14.2c1.9-0.6,3.8-1.2,5.9-1.6
	C39,20.5,50.8,23,52,29C53.1,34.9,43.1,42.1,29.6,44.9z M69.3,52.9c1.5,1.1,1.8,1.3,1.4,2.6c-0.1,0.3-0.2,0.4-0.4,0.4
	c-0.7,0.3-2.5-0.2-4.3-1.3c-1-0.5-4.6-3.1-4.2-5.7c0.3-2,2.3-3.9,3.4-4.8c0.2,0.6,0.1,1.1,0,1.8c-0.1,0.5-0.2,1-0.2,1.6
	c-0.1,2,0.8,2.7,2.5,4l0.7,0.6C68.6,52.4,69,52.6,69.3,52.9z M65.3,42.3c-0.1,0-0.3,0-0.4,0.1c-0.1,0.1-1,0.7-2,1.8
	c-0.1,0-0.1,0.1-0.2,0.1c0,0-1.5,1.5-2.8,1.9c-0.6,0.2-2.5,0.8-3.2,0.3c-0.1-0.1-0.3-0.2-0.3-1c0-1.6,3.6-4.4,6.1-6
	C63.9,40.3,64.8,41.5,65.3,42.3z M59.6,38.8c0.4,0,0.8,0,1.2,0.1c-1.6,1.1-4,2.9-5.2,4.8c0-0.9-0.1-1.9-0.1-2.7
	C56.3,39.9,57.6,38.8,59.6,38.8z M55,57.6c0.5-3.3,0.7-6.8,0.7-10.1c0.1,0.1,0.1,0.1,0.2,0.2c0.5,0.4,1.1,0.5,1.8,0.5
	c0.9,0,1.9-0.3,2.8-0.5c0.1,0,0.2-0.1,0.3-0.1c-0.2,0.4-0.3,0.8-0.3,1.2c-0.1,0.7,0,1.4,0.2,2c-1,1.7-1.4,3.3-1,4.7c0,0,0,0,0,0
	c-0.7,0.6-1.5,1.9-0.9,3.6C57.1,58.9,55.5,58,55,57.6z M60.2,58.9c-0.5-0.9-0.3-1.6,0-1.9c0.3,0.4,0.7,0.8,1.1,1.2
	C61.1,58.4,60.7,58.7,60.2,58.9z M67.6,63.7c-0.6,0.2-2.2,0-4.7-1.8c0.8-0.7,1.3-1.3,1.6-1.7c0.6,0.3,1.2,0.5,1.8,0.7
	c0.9,0.9,1.7,2.1,1.6,2.6C67.9,63.5,67.9,63.6,67.6,63.7z M67.1,59.6C67.1,59.5,67.1,59.5,67.1,59.6c-0.2-0.2-0.5-0.3-0.7-0.2
	c-0.5-0.2-1.1-0.4-1.8-0.8c-2.1-1-3.4-2.2-3.7-3.5c-0.2-0.8-0.1-1.7,0.4-2.7c1.2,1.7,3,3,3.9,3.5c0.9,0.5,2.4,1.2,3.7,1.4
	c0,0,0,0,0,0c0,0,1.4,0.8,1.2,1.7c-0.1,0.4-0.3,0.6-0.5,0.7C69.5,59.9,68.7,60.1,67.1,59.6z"/>
<g>
	<path class="st1" d="M26.1,65.5l-13.4-5.8v-3.2l13.4-5.8v3.8L16.8,58l9.3,3.7V65.5z"/>
	<path class="st1" d="M32.3,47.8h2.8L30.2,68h-2.7L32.3,47.8z"/>
	<path class="st1" d="M36.3,65.5v-3.8l9.4-3.7l-9.4-3.6v-3.7l13.4,5.8v3.2L36.3,65.5z"/>
</g>
</svg>
