<?xml version="1.0" encoding="utf-8"?>
<!-- Generator: Adobe Illustrator 25.4.1, SVG Export Plug-In . SVG Version: 6.00 Build 0)  -->
<svg version="1.1" id="Layer_1" xmlns="http://www.w3.org/2000/svg" xmlns:xlink="http://www.w3.org/1999/xlink" x="0px" y="0px"
	 viewBox="0 0 70 70" style="enable-background:new 0 0 70 70;" xml:space="preserve">
<style type="text/css">
	.st0{fill:none;}
	.st1{fill:#006A71;}
</style>
<g>
	<path class="st0" d="M31.5,28.7c-0.4-0.1-0.8-0.1-1.3-0.1c-3.1,0-7.8,0.8-13.3,2.4c-1,0.3-1.8,0.6-2.5,0.7c0.2,0.3,0.4,0.6,0.6,0.8
		c2.1-0.6,4.2-1.2,6.2-1.5l1.3-0.3c7.6-1.5,9.6-1.9,10.9-0.7c0.2-0.2,0.4-0.5,0.5-0.6C33.8,29.3,33.3,28.9,31.5,28.7z"/>
	<path class="st0" d="M42.5,49.6c-0.1,0.1-0.2,0.1-0.2,0.2c-0.5,0.4-1,0.7-1.6,0.8l-0.3,0c-0.8,0-1.9-0.4-3-1
		c-0.1,0.6-0.2,1.2-0.4,1.8c1.4,0.9,3.2,1.1,4.5,0.4c0.1-0.1,0.2-0.1,0.3-0.2c0.1,0,0.1-0.1,0.2-0.1c0.1-0.1,0.2-0.2,0.3-0.2
		c0.5-0.4,0.9-0.7,1.2-0.9C43.1,50,42.8,49.8,42.5,49.6z"/>
	<path class="st0" d="M35.7,43.7l0-0.2c-0.1-0.3,0-0.6,0-0.7c-0.1-2.8-0.4-5.6-0.9-8.2c0-0.1,0-0.1,0-0.2c0,0,0-0.1,0-0.1
		c-0.2-0.9-0.3-1.9-0.5-2.8c-5.2,4.3-23.9,6.9-24.1,6.9c-0.4,0.1-1.3,0.1-2.3,0.1c-1.2,0-2.1-0.1-2.8-0.4c0.5,2.8,2,8,6.3,15.4
		c2.2,3.8,6.5,7.4,10.8,6.4l6.4-1.2c4.6-2.1,7.4-6.8,7.2-12C35.8,45.8,35.8,44.8,35.7,43.7z M19.2,44.8c0,0.2-0.1,0.3-0.2,0.4
		L16,46.4l2.9,1.2c0.1,0.1,0.2,0.2,0.2,0.4v1.6c0,0.1-0.1,0.3-0.2,0.3c-0.1,0-0.1,0.1-0.2,0.1c0,0-0.1,0-0.1,0L12,47.2
		c-0.1-0.1-0.2-0.2-0.2-0.4v-0.9c0-0.2,0.1-0.3,0.2-0.4l6.6-2.8c0.1-0.1,0.3,0,0.4,0c0.1,0.1,0.2,0.2,0.2,0.3V44.8z M25.2,42.3
		l-2.6,8.3c-0.1,0.2-0.2,0.3-0.4,0.3h-1.5c-0.1,0-0.2-0.1-0.3-0.2c-0.1-0.1-0.1-0.2-0.1-0.3l2.6-8.3c0.1-0.2,0.2-0.3,0.4-0.3h1.5
		c0.1,0,0.2,0.1,0.3,0.2C25.2,42.1,25.2,42.2,25.2,42.3z M33.7,46.8c0,0.2-0.1,0.3-0.2,0.4l-6.6,2.7c0,0-0.1,0-0.1,0
		c-0.1,0-0.2,0-0.2-0.1c-0.1-0.1-0.2-0.2-0.2-0.3v-1.6c0-0.2,0.1-0.3,0.2-0.4l2.9-1.2l-2.9-1.2c-0.1-0.1-0.2-0.2-0.2-0.4v-1.7
		c0-0.1,0.1-0.3,0.2-0.3c0.1-0.1,0.2-0.1,0.4,0l6.6,2.7c0.1,0.1,0.2,0.2,0.2,0.4V46.8z"/>
	<path class="st0" d="M40.8,32.8C40.8,32.8,40.7,32.8,40.8,32.8c-2.1,0-3.5,1.2-4.4,1.8l-0.1,0c0.1,0.7,0.2,1.4,0.3,2.1
		c0.5-0.8,1.2-1.5,2.2-1.9c2.2-0.9,4.7,0.7,4.9,0.9c1.9,1.8,2.1,3.2,1.9,5.9c0,0.1,0.1,0.2,0,0.3c-0.1,0.3,0.1,0.6,1.1,1.2l0.1,0.1
		c0.2-1,0.3-1.7,0.3-2c-1.1-1.3-1.4-2.9-1.5-3.8l0-0.1c0-0.1,0-0.2,0-0.3c0-0.1,0-0.1,0-0.2c-0.1-0.2-1-0.9-2-1.6
		C42.1,34.3,41.2,33.6,40.8,32.8L40.8,32.8z"/>
	<path class="st0" d="M57,38.7c-2.4-3.1-4.7-5.1-6.2-5.3c-0.4,0-0.8,0-1.2,0c0.6,0.4,1.1,0.8,1.2,0.9c0.1,0.1,0.2,0.4,0,0.5
		l-0.5,0.7c-0.1,0.1-0.3,0.2-0.4,0.1c-0.1,0-0.1-0.1-0.2-0.1c-0.3-0.3-2.5-2-3.7-2.7c-2.1-1.4-3.3-1-3.5-0.8
		c-0.1,0.1-0.1,0.2-0.1,0.2c0.3,0.4,1.6,1.4,2.3,1.9c1.6,1.1,2.5,1.8,2.7,2.6c0,0,0,0.1,0,0.1c0,0,0,0.1,0,0.2c0,0.1,0,0.3,0,0.4
		c0.2,1.5,0.6,3.3,2.5,4c1.2,0.4,2,0.5,2.6,0.6l0.2,0c0.6,0.1,1.3,0.1,1.7,1c0,0.1,0,0.2,0,0.3c0,0.1-0.1,0.2-0.2,0.2l-0.8,0.3
		c-0.1,0-0.3,0-0.4,0c0,0-0.1-0.1-0.1-0.1c-0.1,0-0.2,0-0.3,0l-0.3,0c-0.6-0.1-1.5-0.2-3-0.7c-0.2-0.1-0.4-0.1-0.6-0.2
		c-0.1,0.6-0.2,1.3-0.4,2c1,0.9,1.9,1.9,1.5,3.1c-0.2,0.3-0.4,0.7-0.8,1c0,0-0.1,0-0.1,0c0.6,0.7,0.7,1.3,0.5,2.1
		c-0.2,0.4-0.4,0.8-0.9,1c-0.3,0.1-0.5,0.2-0.8,0.2c0.1,0.2,0.1,0.5,0.1,0.7c0.8,0.3,2.1,0.5,4.1,0c2.8-0.7,4.8-0.3,5.9,0.2l4-6.3
		c-0.6-1.3-2.9-5.7-4.7-7.7C57.1,38.8,57,38.8,57,38.7z"/>
	<path class="st0" d="M40.7,36.3c-0.1,0-0.1,0-0.2,0c-0.3,0-0.6,0.1-0.8,0.2c-1.2,0.5-1.8,1.3-1.9,2.5c0.1-0.1,0.1-0.1,0.2-0.2
		l0.5-0.5C38.9,37.8,39.9,36.9,40.7,36.3z"/>
	<path class="st0" d="M38,41.6C38,41.6,38,41.6,38,41.6c0.7,0.1,2.6-0.8,3.6-1.7c0.4-0.3,0.8-0.6,1.1-0.8l0.2-0.2
		c0.3-0.3,0.6-0.6,0.8-0.9c-0.2-0.3-0.4-0.6-0.8-0.9c0,0-0.1-0.1-0.2-0.2c0,0-0.1,0.1-0.1,0.1c-0.6,0.5-2.3,1.8-2.8,2.4l-0.6,0.6
		C38,41,37.9,41.4,38,41.6z"/>
	<path class="st0" d="M46.3,52.5C46.3,52.5,46.2,52.5,46.3,52.5c-0.1-0.1-0.2-0.1-0.2-0.2c-0.2-0.3-0.8-0.8-1.2-1.2l-0.1-0.1
		c-0.2,0.3-0.5,0.5-0.8,0.8c0.4,0.2,0.9,0.4,1.5,0.5C45.9,52.5,46.2,52.5,46.3,52.5z"/>
	<path class="st0" d="M44.8,49.3c0.2,0,0.4,0.1,0.6,0.3c0.1,0.1,0.1,0.1,0.2,0.2c0,0,0,0,0,0c0,0,0.1,0,0.2,0.1
		c0.1,0,0.2,0.1,0.3,0.1c1.1,0.4,1.6,0.4,1.7,0.4c0.1-0.3,0.1-0.6-1.5-1.8c-0.1,0-0.1-0.1-0.1-0.1c-0.1,0-0.2-0.1-0.3-0.1
		c-1.5-0.6-2.8-1.6-3.8-2.6c0,0.2-0.1,0.4-0.1,0.6C41.8,46.7,42.9,48.1,44.8,49.3z"/>
	<path class="st0" d="M8.1,34.1c-3.2,1.4-3.1,2-3.1,2c0,0.3,0.3,0.6,0.8,0.7c0.6-0.6,2.1-1.4,3.5-2C8.8,34.5,8.4,34.3,8.1,34.1z"/>
	<path class="st0" d="M40.8,42.7c0-0.1,0.1-0.3,0.1-0.4c-0.8,0.4-1.8,0.9-2.8,0.9h-0.3c-0.2,0-0.4-0.1-0.5-0.1c0,0,0,0.1,0,0.1
		c0,0.6,0.1,1.2,0.1,1.8c0,0.6,0,1.2,0.1,1.8l0,1c1.1,0.8,2.1,1.2,2.7,1.2c0.1-0.5,0.3-1.1,0.5-1.4c-0.3-0.6-0.4-1.1-0.3-1.6
		c0.2-0.9,0.4-1.6,0.6-2C40.7,43.5,40.7,43,40.8,42.7z"/>
	<path class="st0" d="M44.1,41.8c0-0.8,0.1-1.4,0.1-1.9C44.1,40,44,40,44,40.1c-0.9,1.1-1.5,2.1-1.6,3c-0.1,0.6,1.4,2.5,4.2,3.6
		c0.9,0.4,1.4,0.4,1.7,0.4c0.1-0.3,0-0.7-1.9-2.1c-0.1,0-0.3-0.1-0.5-0.3l-0.1-0.1c-0.7-0.5-1.6-1.2-1.6-2.3L44.1,41.8z"/>
	<g>
		<path class="st1" d="M37.1-58.5c0.1-0.1,0.2-0.1,0.2-0.2l0.2,0v-1c0-0.3-0.1-0.4-0.2-0.5l0,0c-0.1-0.2-0.2-0.3-0.4-0.3l-0.1-0.1
			h-0.4c-0.2,0-0.4,0.1-0.5,0.3c0,0-0.1,0.1-0.1,0.1c-0.1,0.1-0.2,0.2-0.3,0.3c-0.1,0.1-0.1,0.2-0.1,0.4v0.4c0,0.3,0.2,0.5,0.3,0.6
			l0.3,0.2h0.1c0.1,0,0.2,0.1,0.4,0.1C36.6-58.3,36.8-58.3,37.1-58.5z M37-59.8L37-59.8C37-59.8,37-59.8,37-59.8L37-59.8z
			 M36.9-59.9L36.9-59.9L36.9-59.9L36.9-59.9z"/>
		<path class="st1" d="M39.8-56.4c0.3,0,0.6-0.2,0.8-0.4c0.1-0.2,0.1-0.4,0.1-0.6L40.2-60c0-0.5-0.4-0.9-0.9-0.9
			c-0.3,0-0.6,0.2-0.8,0.4c-0.1,0.2-0.1,0.4-0.1,0.6l0.4,2.6C38.9-56.8,39.3-56.4,39.8-56.4z"/>
		<path class="st1" d="M43.8-59.5L43.8-59.5c-0.1-0.1-0.3-0.3-0.7-0.3c-0.2,0-0.3,0-0.4,0.2c-0.1,0.1-0.2,0.1-0.3,0.3l-0.2,0.3v1.3
			h0.3l0,0.1h0.9c0.2,0,0.4-0.1,0.5-0.3l0.2-0.2v-0.1l0.1-0.1v-0.4c0-0.2-0.1-0.3-0.2-0.4C44-59.4,43.9-59.5,43.8-59.5L43.8-59.5z
			 M42.4-58.3l0.1,0.3C42.4-58.1,42.4-58.2,42.4-58.3z M43.1-59.3L43.1-59.3L43.1-59.3C43.1-59.3,43.1-59.3,43.1-59.3z"/>
		<path class="st1" d="M39.1-54.2c1.1,0,2.2-0.4,2.9-1.3c0.2-0.2,0.2-0.5,0.1-0.8c-0.1-0.2-0.2-0.4-0.4-0.5
			c-0.2-0.1-0.4-0.2-0.5-0.2c-0.2,0-0.4,0.1-0.6,0.3c-0.4,0.4-0.9,0.6-1.5,0.6c-0.6,0-1.1-0.2-1.5-0.6c-0.4-0.4-0.9-0.4-1.3,0
			c-0.4,0.4-0.4,0.9,0,1.3C37.1-54.6,38-54.2,39.1-54.2z"/>
		<path class="st1" d="M5.8-35.7c0.3-0.1,0.5-0.3,0.5-0.6c1-3.4,1.8-7,2.5-10.4c0.7-3.6,1.4-6.9,1.6-10.2c0.2-3.6-0.1-7.3-0.5-10.8
			c-0.3-3.1-0.6-6.4-0.5-9.6c0.1-3.5,0.7-6.6,1.9-9.3c0.4,0.4,0.6,2,0.6,3.4c0.1,1.1,0.2,2.1,0.2,3.2c0,0.6,0,1.1,0.1,1.6
			c0.2,3,0.5,6.4,2.3,9.5c0.1,0.2,0.4,0.4,0.7,0.5c0.3,0,0.6,0,0.8-0.2c1.1-1.1,1.3-2.5,1.4-3.9c0.1-1.5,0.3-2.9,0.4-4.4l0.1-0.5
			c0.5-3.3,1.3-6.3,2.4-9.3c0.6-1.5,1.2-3.1,1.9-4.5c0.1-0.1,0.1-0.2,0.2-0.3c0.3-0.5,0.5-0.8,0.7-0.8c0.3,0,0.5,0.6,0.5,0.7
			c0.2,0.6,0.2,1.2,0.2,1.9c0,0.9,0,1.6-0.1,2.5c-0.1,1.1-0.2,2.3-0.4,3.4c-0.1,0.5-0.1,1.1-0.2,1.6c-0.1,0.5-0.1,1.1-0.2,1.6
			c-0.4,3.2-0.9,6.4-0.6,9.6c0,0.5,0.3,0.8,0.7,0.9c0.4,0.1,0.8,0,1.2-0.1c0.2,0.1,0.4,0.1,0.6,0c0.3-0.1,0.5-0.3,0.6-0.6
			C27.9-77.9,31-85,35-92.6l0-0.1c0.2-0.4,0.7-1.5,1.1-1.4c0.3,0,0.4,0.7,0.4,1.3c0.1,1.4,0,3-0.4,4.9c-0.6,2.8-1.8,5.4-2.9,7.9
			c-0.2,0.5-0.5,1.1-0.7,1.6c-0.7,1.6-1.5,3.5-2.2,5.5c-0.7,2-1.3,4.2-0.6,6c0.1,0.3,0.3,0.5,0.5,0.6c0.2,0.1,0.5,0.1,0.7,0
			c1.4-0.7,2.6-1.6,3.7-2.6c1-0.9,2.1-1.7,3.4-2.4c2.3-1.2,5.4-1,7.7,0.4c2.2,1.3,3.6,3.9,3.6,6.7c0,0.5,0,1.5-0.3,1.9
			c-0.3,0.3-0.9,0.2-1.2,0c-0.6-0.3-1.2-1-1.6-1.4c-0.5-0.5-1-0.9-1.5-1.3c-2.7-1.8-6.1-2.3-9.2-1.3c-0.1,0.1-0.4,0.2-0.5,0.5
			c-0.9,0.7-1.5,1.7-1.9,2.8c-0.6,1.7-0.9,3.3-1,4.7c-0.2,1.8,0.1,3.5,0.8,4.9c0.8,1.3,1.8,2.2,3.1,2.7c1.4,0.6,3,0.7,4.7,0.3
			c0.2-0.1,0.3-0.2,0.4-0.3c1.4-0.3,2.9-1.2,3.8-2.4c0.5-0.5,0.9-1.1,1.2-1.6c0.2-0.3,0.4-0.5,0.5-0.8c0.2-0.3,0.4-0.6,0.6-0.9
			c0.3-0.5,0.7-1,1.1-1.4c0.1-0.1,0.2-0.2,0.3-0.2c0.2,0.1,0.4,0.4,0.4,0.8c0.2,0.7,0.2,1.5,0,2.3c-0.3,1.5-1,3-2,4.2
			c-2.8,3.2-6.7,4-9.6,4.2c-1.7,0.1-3.6,0-5.9-0.4L31.2-47c-1.7-0.3-3.6-0.6-5.4,0.1C24-46,22.9-44.3,22-42.6
			c-1.3,2.3-2.3,4.4-3.2,6.6c-0.2,0.5,0.1,1,0.5,1.2c0.1,0,0.2,0.1,0.3,0.1c0.3,0,0.6-0.2,0.7-0.5c0.9-2,1.8-4.1,2.9-6.1l0.3-0.5
			c0.8-1.4,1.6-2.9,3-3.5c1.4-0.6,3.1-0.3,4.8,0c0.5,0.1,0.9,0.2,1.3,0.2c2.2,0.3,4.3,0.4,6.2,0.2c4.4-0.4,7.8-2.2,10-5
			c1.2-1.5,1.9-3.2,2.2-4.9c0.3-2.3-0.1-4-1.2-4.8c-0.9-0.7-2-0.5-2.9,0.5c-0.8,0.9-1.4,1.9-2,2.9c-1.3,1.8-2.7,3.5-4.7,3.8
			c-0.3,0-0.6,0.2-0.8,0.4c-1.2,0.2-2.5-0.1-3.5-0.8c-1.1-0.7-1.8-1.8-2-3.1c-0.3-1.8,0.1-3.6,0.6-5.2c0.4-1.5,0.8-2.8,2.1-3.5
			l0.1-0.1c0,0,0.1-0.1,0.1-0.1c2.7-0.6,5.4,0,7.4,1.7c0.3,0.3,0.6,0.6,1,0.9c0.8,0.8,1.6,1.7,2.9,1.9c0.8,0.1,1.6-0.1,2.1-0.5
			c0.7-0.6,0.8-1.4,0.9-2.2c0.4-3-0.9-6.3-3.3-8.4c-2.4-2.1-5.7-2.9-8.8-2c-2.1,0.6-3.9,1.9-5.5,3.2c-0.8,0.6-1.6,1.3-2.4,1.8
			c0-0.5,0-1,0.2-1.6c0.2-0.8,0.4-1.7,0.7-2.6c0.6-1.7,1.3-3.5,2-5.2l0.4-1c1.3-3,2.7-6,3.4-9.3c0.4-2.1,0.5-3.8,0.3-5.3
			c-0.1-0.7-0.3-1.6-1.1-2.1c-0.7-0.5-1.7-0.4-2.4,0.1c-0.8,0.6-1.2,1.5-1.6,2.3c-0.2,0.5-0.5,1-0.8,1.4c-0.3,0.5-0.5,1-0.8,1.5
			c-0.6,1.1-1.1,2.3-1.7,3.4c-0.4,0.8-0.7,1.5-1.1,2.3c-1.8,4.1-3.5,8.2-5,12.3c0,0,0,0,0,0c-0.1-2.8,0.3-5.6,0.7-8.3l0.1-1
			c0.3-1.8,0.5-3.5,0.7-5.3c0.1-0.9,0.1-1.8,0.1-2.8c0-0.7,0-1.4-0.2-2.2c-0.4-1.3-1.4-2.5-2.8-2.2c-1.4,0.4-2,1.9-2.4,3.1
			c-0.1,0.2-0.1,0.4-0.2,0.6c-1.4,3.2-2.5,6.6-3.1,9.9c-0.4,1.8-0.7,3.7-0.9,5.7c0,0.3,0,0.6,0,0.9c0,0.8-0.1,1.7-0.3,2.4
			c-1-2.7-1.3-5.6-1.4-8.7l0-0.1c-0.1-1.7-0.2-3.5-0.5-5.2c-0.1-1.3-0.7-2.8-1.9-3.1c-0.2-0.2-0.4-0.3-0.7-0.4
			c-0.4,0-0.7,0.2-0.8,0.5c-3,6-2.8,12.7-2.3,19C7.9-68.5,8-67.8,8-67.1c0.2,2.7,0.5,5.6,0.5,8.3c0,3.5-0.6,7-1.2,10.3
			c-0.4,1.9-0.9,3.9-1.3,5.9c-0.4,2-0.9,3.9-1.3,5.9c-0.1,0.3,0,0.6,0.3,0.9C5.2-35.6,5.6-35.6,5.8-35.7z"/>
		<path class="st1" d="M71.9-48.6L71.9-48.6c-2.2-1.9-4.3-3.8-6.4-5.6c-2-1.8-4-3.5-6-5.3c1.9-2,3.8-3.6,5.8-5.1
			c0.8-0.6,1.5-1.1,2.3-1.6c0.4-0.2,0.8-0.5,1.1-0.7c1.4-0.8,2.4-1.6,3.2-2.6c0.3-0.5,0.1-1-0.2-1.3c-0.4-0.3-0.9-0.2-1.1,0.1
			c-0.8,1-1.9,1.7-3.1,2.5L64-65.9c-1.8,1.3-3.4,2.7-4.9,4.3c0.1-0.8,0.1-1.6,0.2-2.3c0.2-2.5,0.3-5.1,0.6-7.6
			c0-0.5-0.4-0.8-0.9-0.8c-0.5,0-0.9,0.4-0.9,0.8c-0.6,7.2-1.1,15.1-1.6,24c0,0.5,0.4,0.8,0.9,0.8c0.5,0,0.9-0.4,0.9-0.8l0-0.4
			c0.2-3.2,0.3-6.5,0.6-9.8c1.9,1.6,3.7,3.2,5.6,4.9c2.1,1.8,4.2,3.7,6.3,5.5c0.1,0.2,0.4,0.3,0.6,0.3c0.3,0,0.6-0.2,0.7-0.6
			C72.3-48,72.2-48.4,71.9-48.6z"/>
		<path class="st1" d="M18.6,42.8L12,45.5c-0.1,0.1-0.2,0.2-0.2,0.4v0.9c0,0.2,0.1,0.3,0.2,0.4l6.6,2.7c0,0,0.1,0,0.1,0
			c0.1,0,0.2,0,0.2-0.1c0.1-0.1,0.2-0.2,0.2-0.3v-1.6c0-0.2-0.1-0.3-0.2-0.4L16,46.4l2.9-1.2c0.1-0.1,0.2-0.2,0.2-0.4v-1.7
			c0-0.1-0.1-0.3-0.2-0.3C18.9,42.7,18.8,42.7,18.6,42.8z"/>
		<path class="st1" d="M24.8,41.8h-1.5c-0.2,0-0.3,0.1-0.4,0.3l-2.6,8.3c0,0.1,0,0.2,0.1,0.3c0.1,0.1,0.2,0.2,0.3,0.2h1.5
			c0.2,0,0.3-0.1,0.4-0.3l2.6-8.3c0-0.1,0-0.2-0.1-0.3C25.1,41.9,24.9,41.8,24.8,41.8z"/>
		<path class="st1" d="M33.5,45.5l-6.6-2.7c-0.1,0-0.3,0-0.4,0c-0.1,0.1-0.2,0.2-0.2,0.3v1.7c0,0.2,0.1,0.3,0.2,0.4l2.9,1.2
			l-2.9,1.2c-0.1,0.1-0.2,0.2-0.2,0.4v1.6c0,0.1,0.1,0.3,0.2,0.3c0.1,0,0.1,0.1,0.2,0.1c0,0,0.1,0,0.1,0l6.6-2.7
			c0.1-0.1,0.2-0.2,0.2-0.4v-1C33.7,45.7,33.6,45.5,33.5,45.5z"/>
		<path class="st1" d="M69.7,48.1c-0.4-0.2-0.1-0.2-1.6-1.1c0,0,0,0,0,0c-1.3-0.8-3.8-1.1-5-1.2c-0.5-1-2.8-5.7-4.9-8
			c0-0.1-4.1-5.6-7.3-6c-1-0.1-2.5,0.1-3.2,0.2c0,0-0.1,0-0.1,0c-0.2-0.1-0.4-0.3-0.5-0.4c-0.1-0.1-0.3-0.2-0.4-0.3
			c-2.7-1.7-4.7-1.4-5.6-0.6c-0.1,0.1-0.2,0.3-0.3,0.5c-2,0-3.6,0.8-4.7,1.6c-0.2-1-0.4-2-0.7-2.9c0-0.1,0-0.1,0-0.2l0-0.1
			c0-0.1,0-0.6-0.3-1.1c-0.6-0.7-1.8-1.2-3.6-1.5c-3.2-0.3-8.9,0.6-15.1,2.4c-0.8,0.2-1.6,0.5-2.4,0.7l-0.5,0.1
			c-0.5-1.1-0.9-2.2-1.2-3.5c-0.7-2.9-0.5-5.5-0.3-7.8c0.1-1.7,0.3-3.3,0-4.8c-0.3-1.6-1.1-2.8-2.3-3.3c-1.2-0.5-2.8-0.3-4.1,0.6
			c-2.6,1.8-3.2,5.2-1.9,11.7c-0.4-0.2-0.8-0.4-1.3-0.3c-0.5,0-0.9,0.3-1.2,0.7c-0.9,1.3,0.9,5.8,5.2,9.3c-2.4,1.1-3.4,2.2-3.3,3.3
			c0,0.3,0.1,6.9,6.6,18.1c2.1,3.6,6,7.4,10.7,7.4c0.6,0,1.3-0.1,1.9-0.2l6.5-1.2c0.1,0,0.1,0,0.2,0c3.3-1.5,5.8-4.1,7.2-7.4
			c1.1,0.6,2.3,1,3.2,1c0.9,0,1.9-0.3,2.6-0.8c0.1,0,0.2-0.1,0.3-0.2c0.6,0.3,1.4,0.7,2.4,1c0.6,0.2,1,0.2,1.3,0.2
			c0.3,0,0.6-0.1,0.8-0.2c1,0.5,2.7,0.8,5.3,0.2c2.2-0.6,3.9-0.2,4.9,0.2c-0.1,1.2,0.3,2.1,1,2.6l0.2,0.2c1,0.8,1.4,1.1,3.1,1.9
			c0.7,0.4,1.2,1.2,1.6,1.8c0,0,0,0.1,0,0.1l0.2,0.3c0.4,0.6,0.7,1.1,1.4,1.2h0.1c0.3,0,0.6-0.1,0.8-0.3c0.1-0.1,0.2-0.4,0-0.5
			l-0.5-0.7c0,0,0-0.1-0.1-0.1c-0.1-0.1-0.3-0.5-0.5-0.7l-0.2-0.3c-0.5-0.8-1.1-1.8-2.1-2.3c-1.4-0.7-1.8-1-2.5-1.5l-0.3-0.2
			l-0.2-0.2c-0.6-0.5-0.5-1.4-0.5-1.6l4.3-6.9c1.5,0.2,3.4,0.5,4.2,1c1.6,0.9,1.7,1.2,1.8,1.3c0.2,0.1,0.4,0,0.5-0.2l0.3-0.7
			c0.1-0.2,0.1-0.4-0.1-0.5C69.9,48.1,69.8,48.1,69.7,48.1z M28.6,58.7L22.2,60c-4.4,1-8.7-2.6-10.8-6.4C7,46.2,5.6,41,5.1,38.2
			c0.7,0.3,1.6,0.4,2.8,0.4c1,0,1.9-0.1,2.3-0.1c0.2,0,18.9-2.6,24.1-6.9c0.2,0.9,0.4,1.8,0.5,2.8c0,0,0,0.1,0,0.1
			c0,0.1,0,0.2,0,0.2c0.4,2.6,0.7,5.4,0.9,8.2c0,0.1,0,0.3,0,0.7l0,0.2c0.1,1.1,0.1,2.1,0.1,3C36,52,33.2,56.7,28.6,58.7z
			 M46.1,49.9c-0.1,0-0.2-0.1-0.3-0.1c-0.1,0-0.2-0.1-0.2-0.1c0,0,0,0,0,0c-0.1-0.1-0.2-0.1-0.2-0.2c-0.2-0.2-0.4-0.3-0.6-0.3
			c-1.9-1.2-3-2.6-2.9-3.1c0-0.2,0.1-0.4,0.1-0.6c1,1,2.4,1.9,3.8,2.6c0.1,0,0.2,0.1,0.3,0.1c0,0.1,0.1,0.1,0.1,0.1
			c1.7,1.2,1.6,1.5,1.5,1.8C47.6,50.3,47.1,50.3,46.1,49.9z M39.6,36.4c0.2-0.1,0.5-0.2,0.8-0.2c0.1,0,0.1,0,0.2,0
			c-0.8,0.6-1.8,1.5-2.3,2l-0.5,0.5c-0.1,0.1-0.1,0.1-0.2,0.2C37.8,37.8,38.5,36.9,39.6,36.4z M39.1,40.1l0.6-0.6
			c0.4-0.6,2.1-1.9,2.8-2.4c0,0,0.1-0.1,0.1-0.1c0.1,0.1,0.2,0.2,0.2,0.2c0.4,0.3,0.6,0.7,0.8,0.9c-0.2,0.2-0.5,0.6-0.8,0.9
			l-0.2,0.2c-0.3,0.3-0.7,0.5-1.1,0.8c-1,0.8-2.9,1.8-3.5,1.7c0,0,0,0,0,0C37.9,41.4,38,41,39.1,40.1z M48.2,47.1
			c-0.2,0-0.7,0-1.7-0.4c-2.8-1.2-4.3-3-4.2-3.6c0.2-0.9,0.7-1.9,1.6-3c0.1-0.1,0.2-0.1,0.2-0.2c0,0.5,0,1.1-0.1,1.9l0,0.4
			c0,1.1,0.9,1.8,1.6,2.3l0.1,0.1c0.2,0.2,0.4,0.3,0.5,0.3C48.2,46.4,48.3,46.9,48.2,47.1z M39.4,42.1c0.3-0.1,0.6-0.2,0.9-0.4
			c0.2-0.1,0.4-0.2,0.5-0.3c0.1-0.1,0.2-0.1,0.3-0.2c0,0,0,0,0,0c0,0,0,0,0,0c0.2-0.1,0.4-0.2,0.5-0.3c0.2-0.1,0.3-0.2,0.4-0.3
			c-0.1,0.1-0.3,0.2-0.4,0.3c-0.2,0.1-0.3,0.2-0.5,0.3c0.1-0.1,0.3-0.1,0.4-0.2c-0.1,0.1-0.2,0.1-0.4,0.2c-0.1,0.1-0.2,0.1-0.3,0.2
			c-0.2,0.1-0.3,0.2-0.5,0.3C40,41.8,39.7,42,39.4,42.1z M37.3,43c0.1,0.1,0.3,0.1,0.5,0.1h0.3c0.9,0,2-0.5,2.8-0.9
			c0,0.1-0.1,0.3-0.1,0.4c-0.1,0.4,0,0.8,0.1,1.2c-0.2,0.4-0.4,1-0.6,2c-0.1,0.5,0,1,0.3,1.6c-0.2,0.4-0.4,0.9-0.5,1.4
			c-0.6-0.1-1.6-0.4-2.7-1.2l0-1c0-0.6-0.1-1.2-0.1-1.8C37.3,44.3,37.3,43.7,37.3,43C37.3,43.1,37.3,43.1,37.3,43z M45.6,36.9
			c0,0.1,0,0.1,0,0.2c0,0.1,0,0.1,0,0.3l0,0.1c0.1,1,0.4,2.6,1.5,3.8c0,0.3-0.1,1-0.3,2l-0.1-0.1c-1-0.6-1.2-0.9-1.1-1.2
			c0-0.1,0-0.2,0-0.3c0.2-2.7,0.1-4.2-1.9-5.9c-0.2-0.2-2.8-1.8-4.9-0.9c-1,0.5-1.8,1.1-2.2,1.9c-0.1-0.7-0.2-1.4-0.3-2.1l0.1,0
			c0.9-0.7,2.4-1.8,4.4-1.9c0,0,0,0,0,0.1l0.1,0.1c0.4,0.7,1.3,1.4,2.7,2.4C44.5,36,45.4,36.7,45.6,36.9z M44.7,51.1l0.1,0.1
			c0.4,0.4,1,0.8,1.2,1.2c0,0.1,0.1,0.1,0.2,0.1c0,0,0,0,0.1,0c-0.1,0-0.4,0-0.9-0.1c-0.6-0.2-1.1-0.4-1.5-0.5
			C44.2,51.6,44.5,51.3,44.7,51.1z M14.5,31.8c0.7-0.2,1.4-0.4,2.5-0.7c5.4-1.5,10.1-2.4,13.3-2.4c0.5,0,0.9,0,1.3,0.1
			c1.9,0.2,2.3,0.6,2.5,0.7c-0.1,0.2-0.3,0.4-0.5,0.6c-1.3-1.2-3.3-0.8-10.9,0.7l-1.3,0.3c-2,0.4-4,0.9-6.2,1.5
			C14.9,32.4,14.7,32.1,14.5,31.8z M5.7,36.7c-0.5-0.2-0.8-0.4-0.8-0.7c0,0-0.1-0.6,3.1-2c0.4,0.2,0.7,0.5,1.2,0.7
			C7.9,35.3,6.3,36.2,5.7,36.7z M41.7,51.5c-0.1,0.1-0.2,0.1-0.3,0.2c-1.2,0.7-3,0.5-4.5-0.4c0.2-0.6,0.3-1.1,0.4-1.8
			c1.1,0.7,2.2,1,3,1l0.3,0c0.6-0.1,1.1-0.4,1.6-0.8c0.1,0,0.2-0.1,0.2-0.2c0.3,0.2,0.6,0.4,0.9,0.6c-0.2,0.2-0.6,0.5-1.2,0.9
			c-0.1,0-0.2,0.1-0.3,0.2C41.9,51.4,41.8,51.4,41.7,51.5z M57.8,52.8c-1.1-0.4-3.1-0.9-5.9-0.2c-2,0.5-3.3,0.3-4.1,0
			c0-0.2-0.1-0.5-0.1-0.7c0.3,0,0.5-0.1,0.8-0.2c0.4-0.2,0.7-0.6,0.9-1c0.2-0.8,0.1-1.4-0.5-2.1c0,0,0.1,0,0.1,0
			c0.4-0.2,0.7-0.6,0.8-1c0.4-1.2-0.4-2.2-1.5-3.1c0.2-0.7,0.3-1.3,0.4-2c0.2,0.1,0.4,0.2,0.6,0.2c1.4,0.5,2.4,0.7,3,0.7l0.3,0
			c0.1,0,0.2,0,0.3,0c0,0,0.1,0.1,0.1,0.1c0.1,0.1,0.2,0.1,0.4,0l0.8-0.3c0.1,0,0.2-0.1,0.2-0.2c0-0.1,0-0.2,0-0.3
			c-0.4-0.9-1.1-1-1.7-1l-0.2,0c-0.6-0.1-1.4-0.2-2.6-0.6c-1.9-0.7-2.3-2.5-2.5-4c0-0.1,0-0.3,0-0.4c0-0.1,0-0.1,0-0.2
			c0,0,0-0.1,0-0.1c-0.2-0.8-1.1-1.4-2.7-2.6c-0.7-0.5-2-1.4-2.3-1.9c0,0,0-0.1,0.1-0.2c0.2-0.2,1.4-0.6,3.5,0.8
			c1.2,0.7,3.5,2.5,3.7,2.7c0,0.1,0.1,0.1,0.2,0.1c0.2,0.1,0.3,0,0.4-0.1l0.5-0.7c0.1-0.2,0.1-0.4,0-0.5c-0.1-0.1-0.6-0.5-1.2-0.9
			c0.4,0,0.8,0,1.2,0c1.5,0.2,3.8,2.2,6.2,5.3c0.1,0.1,0.1,0.1,0.1,0.1c1.8,2,4.1,6.4,4.7,7.7L57.8,52.8z M35.4,33.4
			C35.4,33.4,35.4,33.4,35.4,33.4C35.4,33.4,35.4,33.4,35.4,33.4c0,0.1,0,0.2,0,0.2C35.5,33.5,35.4,33.4,35.4,33.4
			c0.1,0.3,0.1,0.6,0.2,0.9C35.5,34,35.5,33.7,35.4,33.4c-0.1-0.4-0.1-0.7-0.2-1.1c-0.1-0.3-0.1-0.6-0.2-0.8
			c0.1,0.3,0.1,0.6,0.2,0.8c-0.1-0.5-0.2-1.1-0.4-1.6c0.1,0.2,0.1,0.5,0.2,0.7c0,0,0-0.1,0-0.1c-0.1-0.5-0.2-0.9-0.3-1.4
			c0.1,0.4,0.2,0.9,0.3,1.4c0.1,0.3,0.1,0.6,0.2,0.9C35.3,32.6,35.4,33,35.4,33.4z"/>
	</g>
</g>
</svg>
