<?xml version="1.0" encoding="utf-8"?>
<!-- Generator: Adobe Illustrator 25.4.1, SVG Export Plug-In . SVG Version: 6.00 Build 0)  -->
<svg version="1.1" id="Layer_1" xmlns="http://www.w3.org/2000/svg" xmlns:xlink="http://www.w3.org/1999/xlink" x="0px" y="0px"
	 viewBox="0 0 70 70" style="enable-background:new 0 0 70 70;" xml:space="preserve">
<style type="text/css">
	.st0{fill:#006A71;}
</style>
<path class="st0" d="M70.4,24.4c-0.1-0.5-0.5-0.8-1-0.9c-0.4,0-0.7,0.2-0.8,0.5l0,0c-0.5,1.5-1.8,2.6-3.3,3.4
	c-0.3,0.2-0.6,0.4-1,0.5c-1.3,0.7-2.6,1.4-3.7,2.5c-0.4,0.4-0.9,0.9-1.2,1.5c-0.1-0.1-0.1-0.1-0.2-0.2c-0.5-0.4-1-0.9-1.5-1.2
	c-0.2-0.2-0.4-0.2-0.6-0.2c-0.2,0-0.4,0.2-0.6,0.4c-0.9,1.7-0.7,3.4-0.5,5.1c0.1,1.4,0.3,2.8-0.2,4c-1.4,3.4-5.9,3.8-7.2,3.9h-0.5
	c0.1-0.3,0.2-0.6,0.3-0.9c0.1-0.3,0.2-0.5,0.3-0.8c0.3-0.9,0.4-1.8,0.4-2.9c0.1,0,0.1-0.1,0.2-0.1c0.1-0.1,0.3-0.2,0.4-0.3
	c1.2-1.2,2.1-2.7,2.5-4.2c0.3-1,0.1-2-0.4-2.6c-0.2-0.3-0.5-0.5-0.9-0.7c0-0.1,0.1-0.2,0.1-0.2c0.1-0.2,0.1-0.3,0.1-0.4
	c0-0.1,0-0.3-0.2-0.5c-0.7-0.6-1.5-1.2-2.4-1.8c-0.5-1.9-1.1-3.4-2-4.8c-2.2-3.4-5.8-6-10-7.2c-4.3-1.2-8.7-0.6-12.3,1.6
	c-0.9,0.6-1.7,1.2-2.5,1.9c-0.7,0.2-1.4,0.5-2,0.8c-2.2,0.9-4.1,1.8-5.8,2.8c-1.6,1-3.2,2.1-4.1,3.8c-0.1,0.1-0.1,0.1-0.1,0.2
	c-3.3,1.8-6.1,4.4-8.3,7.6c-0.1,0.2-0.3,0.5-0.4,0.7c-0.3,0.5-0.6,0.9-0.8,1.4c-0.1,0.1-0.1,0.2-0.1,0.4c0,0.3,0.1,0.5,0.3,0.6
	l0.2,0.1c3.1,1.4,6.6,2.1,10.5,2.1c0.1,3.7,1.5,7,3.9,9.4c2.9,2.8,7,4.4,12.3,4.9c0.8,0.1,1.6,0.1,2.4,0.1c4.1,0,8-0.9,11.1-2.7
	c2-1,3.7-2.5,5.2-4.2c0.7-0.9,1.2-1.7,1.5-2.4c2.5,0.1,5.5-0.2,7.9-2.2c1.3-1.1,2.2-2.6,2.4-4.2c0.1-1.1,0-2.1-0.1-3.2
	c-0.1-0.7-0.1-1.3-0.1-2c0-0.5,0-0.9,0.1-1.2c0.1,0,0.1,0.1,0.2,0.1c0.5,0.4,1,0.9,1.6,1.3c0.3,0.2,0.6,0.2,0.8,0
	c0.2-0.1,0.3-0.3,0.3-0.5c0.6-1.6,2.2-2.6,3.5-3.3c0.4-0.2,0.8-0.4,1.1-0.6c1.2-0.7,2.5-1.3,3.6-2.4c0.8-0.8,1.3-1.6,1.6-2.6l0-0.1
	L70.4,24.4z M44,47.3c-2.5,2.8-6.3,4.8-10.9,5.5c-4.3,0.6-8.6,0.2-12.3-1.3c-2.2-0.9-3.8-1.9-5-3.2c-1.6-1.6-2.6-3.5-3-5.5
	c-0.2-0.8-0.3-1.7-0.4-2.6h0.8c0.7,0.8,1.4,1.5,2.2,2.1c0.3,0.3,0.7,0.6,1,0.8c0,0.1,0.1,0.2,0.2,0.3c0.1,0.1,0.1,0.2,0.2,0.4
	c1.6,2.1,4,3.8,6.8,4.4c0.3,0.6,0.7,0.9,1.1,1.1c0.7,0.4,1.5,0.3,2.1,0.3l0.1,0.1c0.3,0.1,0.6,0.3,0.9,0.4c3.5,1.2,7.5,0.7,11.3-1.4
	c0.2,0,0.5,0,0.7-0.2c0.1-0.1,0.2-0.2,0.3-0.3c0.7-0.4,1.2-0.9,1.8-1.3c0.7-0.5,1.3-1,1.7-1.7c0.1,0,0.1,0,0.2,0
	c0.2,0,0.4,0.1,0.5,0c0.4,0.1,0.8,0.1,1.2,0.1C45.1,46,44.6,46.7,44,47.3L44,47.3z M41.8,44.7c-0.2,0.2-0.4,0.4-0.6,0.5
	c0-0.2,0.1-0.4,0.1-0.7C41.6,44.7,41.7,44.7,41.8,44.7z M39.1,24.8c0.5,0,1,0.1,1.5,0.2l0,0.1c0.1,0.1,0.1,0.3,0.2,0.4
	c-0.5,0-1,0.1-1.4,0.3C39.2,25.5,39.2,25.1,39.1,24.8z M41.3,34c-0.1,0.4-0.2,0.7-0.2,1.1c-0.1,0.1-0.2,0.2-0.2,0.3l-0.1-0.4
	C40.9,34.6,41.1,34.3,41.3,34z M43.1,29.8c0.8,0.6,1.4,1.2,2.1,2c0,0,0,0,0,0c0,0-0.1,0-0.1,0.1c-0.1,0.1-0.2,0.1-0.4,0.2
	c-0.6,0.3-1.3,0.8-1.8,1.2C43.2,32.2,43.2,31,43.1,29.8z M26,36.5c-0.1,0.1-0.1,0.2-0.2,0.2c0,0,0,0,0,0c0,0,0,0,0,0c0,0,0,0,0,0
	c0.1-0.2,0.2-0.4,0.3-0.6C26,36.3,26,36.4,26,36.5z M26.1,33.3c-0.1,0.1-0.2,0.2-0.2,0.3c-0.1,0-0.1,0-0.1,0c-0.1,0-0.1,0-0.2,0
	l-0.1,0c-0.1,0-0.2,0.1-0.3,0.1c0.1-0.5,0.2-1.1,0.5-1.6c0.5-0.9,1.2-1.8,2.1-2.5c-0.5,1-0.9,2.1-1.3,3.2
	C26.3,33.1,26.2,33.2,26.1,33.3z M32.3,28.8c0,0,0-0.1,0-0.1c-0.1-0.2-0.1-0.5-0.2-0.7c0-0.1-0.1-0.2-0.1-0.3c0.3,0.4,0.6,0.7,0.8,1
	C32.6,28.7,32.5,28.8,32.3,28.8z M29.4,35.4c0.5-0.4,1.2-0.8,2-1.2c0,0.3,0,0.6,0,0.9v0c-0.7,0.5-1.2,0.8-1.9,1.1
	C29.4,35.9,29.4,35.6,29.4,35.4z M28.5,34c-0.2-0.1-0.4-0.2-0.6-0.3c0,0,0,0,0,0l0.2-0.2c0.9-0.9,2-1.8,3.1-2.5l0.2,1.3
	C30.4,32.8,29.4,33.3,28.5,34z M33.5,31.5c-0.1,0-0.2,0-0.3,0.1c0,0,0,0,0,0c-0.1-0.4-0.3-0.9-0.5-1.3c0.2-0.1,0.5-0.1,0.7-0.2
	C33.5,30.6,33.5,31.1,33.5,31.5z M29,30.7c0.3-0.6,0.7-1.2,1.1-1.8c0.2,0.2,0.3,0.5,0.5,0.7c-0.5,0.3-0.9,0.6-1.4,0.9
	C29.1,30.6,29,30.6,29,30.7z M30.2,39.2L30,39.4l0.5-0.4c0.1,0,0.1-0.1,0.2-0.1c-0.1,0.1-0.1,0.2-0.2,0.3c-0.1,0.2-0.4,0.4-0.6,0.7
	l-0.1,0.1c-0.3,0.1-0.7,0.2-1.2,0.2c0,0-0.1-0.1-0.1-0.1C29.1,39.8,29.6,39.5,30.2,39.2z M32.4,39C32.4,39,32.4,39,32.4,39l0.1-0.3
	c0.2-0.4,0.4-0.8,0.6-1.4c0.1,0,0.1-0.1,0.2-0.1c0.4-0.3,0.8-0.6,1.1-1c0.2,0.5,0.5,0.9,0.7,1.3C34.2,38.2,33.3,38.7,32.4,39z
	 M29.8,26.8c0,0-0.1-0.1-0.1-0.1v-0.1l-0.1,0.1c-0.2-0.1-0.4-0.3-0.5-0.4c0.1,0,0.1,0,0.2-0.1l0.1,0l0,0c0.2,0.1,0.3,0.2,0.5,0.3
	c0,0.1,0,0.1,0.1,0.2C30,26.7,29.9,26.7,29.8,26.8z M23.1,36.6c0.2,0.3,0.5,0.5,0.7,0.6c0,0,0,0.1,0,0.1c-0.1,0-0.2,0-0.3,0
	c-0.1,0-0.2,0-0.3,0c-0.1-0.2-0.2-0.4-0.3-0.6L23.1,36.6z M24.6,42c0.4-0.2,0.7-0.4,1.1-0.7c0.4,0.1,0.8,0.2,1.2,0.3
	c0.1,0.1,0.1,0.3,0.2,0.4c-0.6,0.2-1.2,0.4-1.8,0.4C24.9,42.5,24.7,42.3,24.6,42C24.6,42.1,24.6,42.1,24.6,42z M34.5,41.9
	c-0.2,0-0.4-0.1-0.5-0.1c0,0,0,0,0,0c-0.7-0.1-1.4-0.2-2.2-0.4c0.1-0.2,0.1-0.3,0.1-0.5c0.1,0,0.2-0.1,0.3-0.1l0.2,0
	c1.4-0.6,2.4-1.1,3.4-1.6c0.1,0,0.2-0.1,0.3-0.2c0.1,0.1,0.2,0.1,0.2,0.2c0.1,0.1,0.1,0.1,0.2,0.2c0,0,0.1,0.1,0.1,0.1
	c-0.3,0.8-0.6,1.5-1,2.2c-0.3,0-0.5,0.1-0.8,0.2C34.8,41.9,34.7,41.9,34.5,41.9z M30.7,23.9C30.7,23.9,30.7,23.8,30.7,23.9
	c0-0.1-0.1-0.2-0.1-0.2c0,0,0.1,0,0.1,0c0.2-0.1,0.4-0.1,0.6-0.2c0.4-0.1,0.9-0.2,1.3-0.2C32,23.4,31.3,23.6,30.7,23.9z M23.9,32.3
	c-0.3,0.7-0.4,1.4-0.4,2.2c0,0-0.1,0-0.1,0.1c-0.3-0.5-0.5-0.9-0.6-1.4c-0.1-0.2-0.1-0.5-0.1-0.8c0.3-1,0.7-2,1.3-2.8
	c1.1-1,2.2-1.8,3.6-2.5c0.2,0.2,0.5,0.3,0.7,0.5C26.2,28.6,24.6,30.3,23.9,32.3z M39,36.8c0.2-0.1,0.3-0.2,0.5-0.4
	c0,0.2,0.1,0.5,0.1,0.7c-0.3,0.6-0.6,1.2-0.8,1.9l-0.3-0.2C38.7,38.1,38.9,37.5,39,36.8L39,36.8z M38.4,40.6c-0.1,0-0.1,0.1-0.2,0.1
	c-0.2,0.1-0.3,0.1-0.5,0.2c0.1-0.2,0.1-0.4,0.2-0.6C38.1,40.4,38.3,40.5,38.4,40.6z M39.8,28.3c0.2,0.3,0.4,0.6,0.6,0.9
	c0.3,0.8,0.4,1.8,0.2,2.9c0,0.1,0,0.1-0.1,0.2C40.3,31,40,29.7,39.8,28.3z M34.8,28.9v-0.5l-0.1,0.4c0,0-0.1,0-0.1-0.1
	c-0.2-0.5-0.5-1-0.9-1.4c0.9-0.1,1.7-0.1,2.5-0.1l-0.3,0.1h0.4c-0.5,0.5-0.9,1.1-1.3,1.7C34.9,29,34.9,29,34.8,28.9z M36.3,25
	c0.2,0,0.4-0.1,0.5-0.1c0.1,0.1,0.2,0.2,0.2,0.4C36.8,25.2,36.6,25.1,36.3,25z M20.9,35l0.1,1.5v0c0,0.1-0.1,0.1-0.1,0.2
	C20.9,36.1,20.8,35.6,20.9,35z M28.9,46c0.7-0.5,1.3-1.2,1.8-2c0.7,0.1,1.4,0.1,2.1,0c0.5-0.1,1-0.1,1.5-0.3
	c-1.1,1.2-2.3,2.1-3.5,2.6c-0.8,0.3-1.6,0.5-2.5,0.7C28.5,46.8,28.8,46.5,28.9,46z M41.7,38.2c0.1-0.3,0.2-0.6,0.4-0.9
	c0.2-0.5,0.3-0.9,0.4-1.4c0.2-0.2,0.4-0.4,0.6-0.6c0.1-0.1,0.2-0.2,0.3-0.3c0.8-0.8,1.8-1.4,2.8-1.8c0.2,0.4,0.4,0.8,0.5,1.2
	c-1.6,1.8-3.4,3.4-5.3,4.6c0,0,0,0,0-0.1C41.5,38.7,41.6,38.4,41.7,38.2z M37.6,36.1c-0.2,0.1-0.4,0.3-0.6,0.4
	c-0.2,0.1-0.4,0.3-0.6,0.4c-0.5-0.6-0.8-1.3-1-1.9c0.7-1,1.1-2,1.3-3c0-0.5-0.4-0.8-0.9-0.8v-0.4c0.5-1.2,1.3-2.1,2.1-2.7
	c0.1,1,0.1,1.9,0.1,2.9C38.1,32.5,37.9,34.2,37.6,36.1z M24.6,26C24.6,26,24.6,26,24.6,26C24.6,26,24.5,26,24.6,26
	C24.5,26,24.5,26,24.6,26z M20.7,29.3c-0.6,1.3-1,2.9-1.2,4.4c-0.4,1.3-0.7,2.8-0.7,4.4c-0.9,0.1-1.8,0.2-2.7,0.3
	c-0.3-1.6-0.3-3.2-0.2-4.5c0.2-1.8,0.7-3.8,1.5-5.9c0.8-0.7,1.5-1.1,2.1-1.5c0.5-0.3,0.9-0.5,1.4-0.6C20.7,27,20.7,28.2,20.7,29.3z
	 M18.9,39.8c0.2,1.5,0.6,2.9,1.4,4.1c-0.2-0.1-0.5-0.2-0.7-0.4c-0.7-0.4-1.4-0.8-2-1.4c-0.4-0.5-0.6-1-0.8-1.5l0,0
	c-0.1-0.2-0.2-0.4-0.2-0.6C17.3,40,18.1,39.9,18.9,39.8z M26.5,43.7c0.5-0.2,1-0.3,1.6-0.6c0.3,0.2,0.6,0.4,0.9,0.6
	c-0.1,0.2-0.3,0.3-0.4,0.5c-1,1-2.5,1.5-3.8,1.3l-0.6-0.2c0,0,0,0,0-0.1c0-0.1-0.1-0.2-0.1-0.4c-0.1-0.4-0.2-0.8-0.3-1.2
	C24.4,44,25.4,44.1,26.5,43.7z M30.3,48.8c2-0.7,3.6-1.6,5-2.6c1.2-0.8,2.3-1.8,3.2-2.8c0.3,0,0.6-0.1,1-0.1
	c0.2,0.2,0.4,0.4,0.7,0.6c-0.1,1.2-0.4,2.3-0.9,3.1c-1.7,0.9-3.2,1.5-4.8,1.9l0,0c-1.5,0.3-3.1,0.4-4.6,0.1
	C30,48.9,30.1,48.8,30.3,48.8z M42.9,27.8l-0.1-0.6c1.1,0.2,2,0.6,2.7,1c0.3,0.4,0.5,0.8,0.8,1.3c0.3,0.5,0.5,1.1,0.6,1.7
	c-0.1,0-0.1,0-0.2,0.1c-0.3-0.4-0.6-0.7-1-1.1C45,29.3,44,28.5,42.9,27.8z M31.1,19.8c0.7-0.2,1.4-0.3,2-0.4l0.3,0
	c0.9-0.1,1.8-0.2,2.3,0.3c0.5,0.4,0.7,1.2,0.9,1.9c0,0.1,0.1,0.3,0.1,0.5c-0.1,0-0.2,0-0.3,0c-0.2,0-0.4,0.1-0.6,0.1
	c-0.2-0.1-0.4-0.2-0.6-0.2c-1-0.3-2.1-0.4-3.2-0.2c-0.1-0.2-0.4-0.4-0.6-0.4c-0.6,0-1.2,0-1.8,0.1c-0.2-0.4-0.4-0.7-0.6-1.1
	C29.8,20.1,30.5,19.9,31.1,19.8z M24.8,23.6c-0.5,0-0.9,0-1.4,0.1c0.7-1,1.7-1.8,3.2-2.5c0.2-0.1,0.4-0.2,0.6-0.2
	c0.1,0,0.2-0.1,0.3-0.1c0.2,0.2,0.3,0.5,0.5,0.8l0,0.1C26.9,22.2,25.8,22.8,24.8,23.6z M22.6,26c0-0.1,0-0.2,0.1-0.3
	c0,0,0.1,0,0.1,0C22.7,25.8,22.7,25.9,22.6,26z M14.6,38.6c-0.1,0-0.1,0-0.2,0c-0.2,0-0.4,0-0.6,0c-0.5-0.6-0.9-1.1-1.3-1.7
	c0.4-2.3,1.2-4.4,2.4-6.2C14.2,33.5,14.1,36.2,14.6,38.6z M41.5,43v-0.2c1.1-0.3,2.1-0.7,3-1.3c0,0.1-0.1,0.2-0.1,0.2
	c-0.4,0.6-0.9,1.2-1.3,1.8C42.5,43.4,42,43.2,41.5,43z M44.2,39.9c-0.5,0.1-1.1,0.2-1.7,0.2c1.5-1,2.9-2.1,4.1-3.3
	c-0.1,0.2-0.1,0.3-0.1,0.4c-0.4,0.8-0.8,1.3-1.3,1.9C44.9,39.4,44.6,39.6,44.2,39.9z M42.9,24.1c-0.4-0.2-0.9-0.4-1.4-0.5
	c-0.3-0.4-0.6-0.7-0.8-0.9c-0.8-0.5-1.6-0.8-2.4-0.9c-0.3-1.4-0.8-3.2-2.5-4c-1-0.5-2.1-0.2-3.2,0c-0.7,0.1-1.5,0.3-2.6,0.5
	l-0.4,0.1c-0.6,0.1-1.2,0.3-1.8,0.5c-0.5-0.4-1.1-0.7-2-0.7c0.2-0.1,0.5-0.2,0.7-0.4l0,0c1.5-0.7,3.3-1.1,5.4-1.1
	c3.5,0,7.2,1.4,10.2,3.9c1.9,1.7,3.4,3.7,4.2,6C45.5,25.6,44.3,24.7,42.9,24.1z M23,20.6c0.3-0.1,0.5-0.2,0.7-0.2
	c0.3-0.1,0.6-0.2,0.9-0.3c0.2-0.1,0.3-0.1,0.5-0.1c0.3-0.1,0.5-0.1,0.7-0.1c-1.9,0.9-3.2,2.2-4.1,3.7c-0.1,0.1-0.1,0.2-0.2,0.4
	c0,0,0,0.1,0,0.1c0,0-0.1,0-0.1,0c-0.6,0-1.3,0-2,0c0.6-0.9,1.3-1.8,2-2.5c0.1-0.1,0.3-0.3,0.5-0.4c0.2-0.1,0.3-0.3,0.5-0.4
	C22.6,20.8,22.8,20.7,23,20.6z M12.6,25.7c0.9-0.8,2-1.4,2.8-1.8c1-0.6,2.3-1.3,3.8-1.9c-0.6,0.7-1.1,1.5-1.6,2.4
	C16,24.6,14.3,25,12.6,25.7z M16.7,26.1C16.7,26.1,16.7,26.1,16.7,26.1c-0.2,0.3-0.3,0.6-0.4,0.9c-2.3,2.1-4,4.9-4.9,8.1
	c-0.9-1.8-1.8-4.4-0.8-6.7c1.2-0.7,2.6-1.3,4.3-1.8C15.4,26.4,16.1,26.2,16.7,26.1z M44.9,43.7c0.7-1,1.4-2,1.9-3l0.5-0.3
	c-0.2,1.1-0.5,2.2-1,3.4C45.8,43.8,45.3,43.7,44.9,43.7z M10.8,38.7c-1.1,0-2.1-0.1-3.2-0.3l0,0c-2-0.2-4-0.7-5.8-1.4
	c1.6-3,4-5.5,7-7.5c-0.2,1.1-0.1,2.3,0.3,3.5c0.4,1.5,1.1,3.1,2,4.4C10.9,37.7,10.8,38.2,10.8,38.7z M48.8,30.3c0,0,0.1,0.1,0.1,0.1
	c0.1,0.1,0.2,0.2,0.3,0.2c0,0,0,0,0,0.1c0,0,0,0,0,0c-0.1,0-0.2,0-0.3,0C48.9,30.6,48.9,30.4,48.8,30.3z M48.9,34l1.1-1.6
	c0,0,0.1,0,0.1,0c0.1,0,0.2,0.1,0.3,0.2c0.9,0.8-0.5,3-0.8,3.5c-0.2,0.3-0.4,0.6-0.6,0.9c0-0.5-0.1-0.9-0.2-1.4
	C48.8,35,48.9,34.5,48.9,34z"/>
</svg>
