<?xml version="1.0" encoding="utf-8"?>
<!-- Generator: Adobe Illustrator 26.0.2, SVG Export Plug-In . SVG Version: 6.00 Build 0)  -->
<svg version="1.1" id="Layer_1" xmlns="http://www.w3.org/2000/svg" xmlns:xlink="http://www.w3.org/1999/xlink" x="0px" y="0px"
	 viewBox="0 0 1029 239" style="enable-background:new 0 0 1029 239;" xml:space="preserve">
<style type="text/css">
	.st0{fill:#0060AE;}
</style>
<g>
	<path class="st0" d="M46.6,141.7v96.8H0V0.5h46.6v96.4h76.3V0.5h46.4v238h-46.4v-96.8H46.6z"/>
</g>
<g>
	<path class="st0" d="M240.6,128.9c1.2,13.2,6.4,23.6,15.7,31.3c9.2,7.7,21,11.6,35.4,11.6c9.5,0,18-2,25.6-5.9
		c7.6-4,13.6-9.6,17.9-17h46.7c-7.7,19.9-19.5,35.4-35.3,46.6c-15.8,11.2-33.9,16.8-54.4,16.8c-27,0-49.8-9.5-68.4-28.4
		C205.3,165,196,142.2,196,115.5c0-26.9,9.4-49.9,28.1-69.1c18.7-19.2,40.9-28.7,66.6-28.7c27.6,0,50.8,9.6,69.6,28.8
		c18.8,19.2,28.2,43.3,28.2,72.2c0,2.8,0,4.9-0.1,6.3c-0.1,1.4-0.1,2.7-0.3,3.9H240.6z M342.1,94.9c-3.3-12.2-9.4-21.5-18.3-28
		c-8.8-6.5-19.8-9.7-32.8-9.7c-11.4,0-21.7,3.5-30.9,10.6c-9.2,7-15.3,16.1-18.2,27.1H342.1z"/>
</g>
<g>
	<path class="st0" d="M813.5,107.8c0-29.6,10.5-55,31.4-76.1C865.9,10.6,890.9,0,920,0c30.6,0,56.4,10.4,77.4,31.3
		c21,20.8,31.5,46,31.5,75.5c0,31.3-10.4,57.5-31.1,78.6c-20.7,21-46.4,31.5-77.2,31.5c-30.1,0-55.5-10.5-76.2-31.6
		C823.9,164.1,813.5,138.3,813.5,107.8z M919.3,47c-16.5,0-30.1,5.7-40.7,17.2c-10.6,11.4-15.9,26.2-15.9,44.4
		c0,18.2,5.4,32.8,16.1,44c10.8,11.2,24.8,16.8,42.3,16.8c17.8,0,31.9-5.7,42.4-17.1c10.5-11.4,15.8-26.7,15.8-46
		c0-17.4-5.6-31.7-16.9-42.7C951.2,52.6,936.8,47,919.3,47z"/>
</g>
<g>
	<g>
		<path class="st0" d="M450.8,36.2v67.2h177.6v41.9H412.9V36.2H450.8z"/>
	</g>
	<g>
		<path class="st0" d="M628.5,129.9v67.2h177.6V239H590.6V129.9H628.5z"/>
	</g>
</g>
</svg>
