<?xml version="1.0" encoding="utf-8"?>
<!-- Generator: Adobe Illustrator 26.0.2, SVG Export Plug-In . SVG Version: 6.00 Build 0)  -->
<svg version="1.1" id="Layer_1" xmlns="http://www.w3.org/2000/svg" xmlns:xlink="http://www.w3.org/1999/xlink" x="0px" y="0px"
	 viewBox="0 0 68 65.2" style="enable-background:new 0 0 68 65.2;" xml:space="preserve">
<style type="text/css">
	.st0{fill:#ED0BFF;}
</style>
<path class="st0" d="M10.9,15.9c-0.2,0-0.5-0.1-0.6-0.2l-5.9-3.8c-0.6-0.3-0.8-1-0.5-1.5C4.3,9.7,5.1,9.6,5.5,10l5.9,3.8
	c0.6,0.3,0.7,1,0.3,1.6C11.6,15.7,11.2,15.9,10.9,15.9z"/>
<path class="st0" d="M15,12.8c-0.3,0-0.7-0.2-0.9-0.6L8.5,3.7C8.2,3.1,8.3,2.5,8.9,2.1s1.3-0.2,1.6,0.3l5.6,8.5
	c0.3,0.6,0.2,1.3-0.3,1.6C15.5,12.6,15.3,12.8,15,12.8z"/>
<path class="st0" d="M20.2,9.7c-0.6,0-1-0.5-1.2-1l-0.9-6.8C18,1.3,18.4,0.6,19,0.6c0.7-0.1,1.3,0.3,1.3,0.9l0.9,6.8
	C21.3,8.9,20.9,9.6,20.2,9.7C20.4,9.7,20.4,9.7,20.2,9.7z"/>
<g>
	<path class="st0" d="M36.9,15.4c1.4,0,2.5,0.2,3.6,0.8c0.3-0.7,1-1.9,2.3-2.5c-0.5-2.4-2.5-3.9-5.1-3.7c-2,0.1-3,1.7-3.5,2.4
		C36.1,13.3,36.7,14.7,36.9,15.4z"/>
	<path class="st0" d="M41.3,16.9c1.3,1.2,1.7,2.7,1.7,3.7c0,0.6-0.1,1-0.2,1.5c0.8,0.6,2.5,2.2,2.2,3.9c-0.1,0.5-0.2,0.9-0.5,1.5
		c2.3,0.5,3-0.9,3.1-1c0.1-0.2,0.2-0.3,0.6-0.3c0.2,0,0.5,0.1,0.5,0.3c0,0.1,1,2.3,4.2,2.4c1.4,0,2.5-0.7,3.4-1.9
		c1-1.5,1.2-3.6,0.3-5.1c-0.6-1.2-1.3-1.9-2.2-2.2c-1.3-0.3-2.3,0.1-2.3,0.1c-0.2,0.1-0.3,0.1-0.6,0c-0.1-0.1-0.2-0.2-0.2-0.5
		c0-0.1-0.1-3.8-3.7-5.1C43.4,13.1,41.8,16.1,41.3,16.9z M50.8,26.3c0.1-0.3,0.3-0.5,0.7-0.5c0,0,1.2,0.2,2.1-0.2
		c0.3-0.2,0.7-0.7,0.8-1.2c0.1-0.3,0.3-0.5,0.7-0.5c0.3,0.1,0.5,0.3,0.5,0.7c-0.2,0.8-0.6,1.5-1.3,2c-0.6,0.3-1.4,0.5-2,0.5
		S51.4,27,51.4,27C50.9,27,50.7,26.7,50.8,26.3z M46.9,22.8c0,0,1.2-0.2,1.5-1.9c0.5-2-1-3-1-3c-0.2-0.1-0.3-0.6-0.1-0.8
		c0.1-0.2,0.6-0.3,0.8-0.1c0.1,0,2.1,1.4,1.5,4.2c-0.6,2.3-2.3,2.7-2.4,2.8H47c-0.2,0-0.5-0.2-0.6-0.5
		C46.4,23.2,46.6,22.8,46.9,22.8z"/>
	<path class="st0" d="M48.6,9.4c-18.1-6-30.1-4.7-46,33.2C4,54.3,31.2,62.8,31.2,62.8c-0.1-0.9-0.1-1.7-0.1-2.7
		c3.5,1.5,7.5,2.8,10.1,2.8c8.1,0,11.1-9.7,12.5-11.1c0.7,0,1.6,0.3,3,0.3s4.5-0.1,4.1-4.4c-0.9-4.6,1.7-11.5,2.5-13.3
		c0.6-0.2,1.3-0.5,1.9-0.8C65,33.5,66.1,14.7,48.6,9.4z M25.4,28c-2.2-0.3-5.7-1.7-5.8-5.3c-0.1-1.7,0.5-3.1,1.5-4.2
		c1.2-1.2,2.9-1.6,3.9-1.7c0-1.2,0.3-2.4,1.2-3.5c0.7-0.9,2.1-2.1,4.6-1.7c0.9,0.1,1.6,0.2,2.3,0.5c0.5-0.9,1.7-3,4.4-3.2
		c3-0.2,5.6,1.6,6.3,4.4c1-0.3,2.3-0.5,4.1,0.1c3.4,1.2,4.2,3.9,4.4,5.3c0.6-0.1,1.5-0.2,2.5,0C56,19,57,20,57.7,21.5
		c0.9,2,0.8,4.4-0.5,6.3c-1,1.5-2.5,2.4-4.2,2.4l0,0c-2.7-0.1-4.1-1.4-4.7-2.3c-0.7,0.7-2,1.4-4.2,0.8c-0.3,0.6-0.8,1-1.5,1.4
		c-0.7,0.5-1.5,0.7-2.3,0.7c-0.5,0-0.9-0.1-1.4-0.2c-2.5-0.7-3.4-2.9-3.5-4.3c-2.1-0.2-3.5-1.9-3.6-2c-0.2-0.2-0.1-0.6,0.1-0.8
		c0.2-0.2,0.6-0.1,0.8,0.1c0,0,1.3,1.6,3.1,1.5c1.7-0.1,2.3-2.8,2.3-2.8c0.1-0.3,0.3-0.5,0.7-0.5c0.3,0.1,0.5,0.3,0.5,0.7
		c0,0.1-0.7,3-2.8,3.6c0.1,0.8,0.5,2.7,2.7,3.2c1,0.2,2,0.1,2.8-0.3c1.2-0.7,1.9-2.1,2.1-3.1c0.2-1-0.9-2.1-1.6-2.8
		c-0.6,0.8-1.2,1.4-1.3,1.4c-0.1,0.1-0.2,0.1-0.3,0.1s-0.3-0.1-0.5-0.2c-0.2-0.2-0.1-0.6,0.1-0.8c0,0,1.7-1.4,1.6-3
		c0-0.9-0.5-2.1-1.5-3c-1-0.8-2.4-1.3-4.1-1c-0.1,0-0.3,0-0.5-0.1c-0.1-0.1-0.2-0.2-0.2-0.5c0-0.1,0-2.8-5-3.4
		c-1.6-0.1-2.9,0.2-3.6,1.3c-1.2,1.6-1,4.2-0.6,5.1c0.1,0.2,0,0.6-0.3,0.7c-0.2,0.1-0.6,0-0.7-0.3s-0.2-0.9-0.3-1.6
		c-0.7,0-2.2,0.3-3.2,1.4c-0.8,0.8-1.3,2-1.2,3.4c0.1,3,3.2,3.9,4.6,4.2c0-0.8,0.2-1.5,0.8-2.1c1-1.3,2.9-1.5,3-1.5
		c0.3,0,0.6,0.2,0.6,0.5c0,0.2-0.2,0.6-0.5,0.6c0,0-0.8,0.1-1.5,0.6c-0.9,0.6-1.3,1.4-1.2,2.5c0.2,2.4,2.2,2.8,5,3.1l0.8,0.1
		c0.7,0.1,1.3,0.5,1.6,1.2c1.2,1.9,0.6,5.3,0.6,5.6c-0.1,0.2-0.3,0.3-0.6,0.3c-0.1,0-0.1,0-0.2,0c-0.3-0.1-0.5-0.5-0.3-0.7
		c0.1-0.5,0.5-3.4-0.5-4.7c-0.2-0.3-0.5-0.5-0.8-0.6l-0.7-0.1C29,31.5,26,31.1,25.4,28z M29.3,20.3c-0.1,0.3-0.5,0.5-0.7,0.3
		c-0.3-0.1-0.5-0.5-0.3-0.7c0.5-1.2,1.2-2.4,4.1-2.4c3,0,3.6,3.7,3.6,3.8c0,0.3-0.1,0.6-0.5,0.7h-0.1c-0.2,0-0.5-0.2-0.6-0.5
		c0,0-0.5-2.9-2.5-2.9C29.8,18.5,29.6,19.5,29.3,20.3z M57.7,46.6c0.6,1.5-0.3,3.7-3,3.4s-3.6-0.1-3.9,2.3S45.1,66,31.3,57.9
		c0,0,3.2-16.7,12.3-24.5c0,0,5.3,5,14.7,3.5C58.3,36.6,57.1,45.1,57.7,46.6z"/>
</g>
</svg>
