<?xml version="1.0" encoding="utf-8"?>
<!-- Generator: Adobe Illustrator 25.4.1, SVG Export Plug-In . SVG Version: 6.00 Build 0)  -->
<svg version="1.1" id="Layer_1" xmlns="http://www.w3.org/2000/svg" xmlns:xlink="http://www.w3.org/1999/xlink" x="0px" y="0px"
	 viewBox="0 0 68 65.2" style="enable-background:new 0 0 68 65.2;" xml:space="preserve">
<style type="text/css">
	.st0{fill:#006A71;}
</style>
<path class="st0" d="M34.3,6.5c0,0-0.5-2.9-5.9-3.4S12.3,2.6,7.8,10.8s-4.2,26.5,3.9,37.5s19.3,13.9,19.3,13.9s-1.3-3.2,0-9.5
	c0,0-6.2-4-10-11.4S16.6,29,18.1,22.4c1.5-6.6,9.3-3.9,11.3-2.6c2,1.3,4.8,1.4,4.9,0.6c0.1-0.8-1.1-3.1-5.5-4.2s-8.6-1.4-11.5,0.6
	c0,0-0.2-0.7,3.1-1.8c3.2-1.1,7-0.7,9.9,0.6s3.5,2.2,4.3,2.7c0.8,0.5,2.2-1.4-0.7-4.1s-9.4-3.8-13.4-2.7s-4.1,1.8-4.1,1.8
	s1.8-2.2,6.2-2.7s8.7,0.5,11,2.2s2.5-1.8,0.7-3.1s-6.2-2.9-11.2-2.5s-7.5,1.4-9.5,3.2c0,0,2-3.1,5.9-3.4c3.9-0.4,7.8-1.1,10.9,0.2
	S34.3,6.5,34.3,6.5z"/>
<path class="st0" d="M51.9,14.5c0,0-12.7-0.5-15.9,4.8c-3.2,5.2,3.3,0.9,8.9-0.2s8.2,1.1,9.3,5.2s-6.8,18-20.6,27.7
	c0,0-3.8,8,0.5,11.5c0,0,17.4-12.2,25.7-26s1.8-31.7-7.6-34.1S35.2,4.6,35,6.7c-0.4,2.1,3.9,1.8,6.2,1.2s6.7-1.9,10-0.5
	c0,0-6.8-0.4-11.2,1.4c-4.2,1.6-4.2,2.9-3.8,4.5c0,0,2.8-2.2,7.3-2.9C48,9.8,51,10.8,51,10.8s-0.1,0.6-1.3,0.5
	c-1.2-0.2-12.4-0.1-13.9,4.1C34.4,19.5,37,17,37,17S44.3,13,51.9,14.5z"/>
<path class="st0" d="M34.7,34.3c-5.3,0-10.1-3.2-10.2-3.3l-0.7-0.5l0.7-0.6c0.2-0.1,4.6-3.5,10.5-3.5s9.5,3.1,9.6,3.2l0.6,0.5
	l-0.7,0.6C43.1,31.7,39.8,34.3,34.7,34.3z M26,30.4c1.5,0.8,5.1,2.6,8.7,2.6c4.1,0,6.9-1.8,8.3-2.9c-1.2-0.8-4.2-2.3-8.2-2.3
	S27.4,29.5,26,30.4z"/>
<path class="st0" d="M31.1,48.3c-1.1,0-2-0.6-2.5-1.6c-0.8-2,0-5.8,3.8-9.4l0.9-0.9l-0.1,1.3c0,0-0.4,3.1,0.4,4.6
	c0.5,1.1,0.9,3.3,0,4.8C33.4,47.6,32.7,48.3,31.1,48.3C31.3,48.3,31.1,48.3,31.1,48.3z M32.2,38.8c-2.7,3.1-3.3,6-2.7,7.5
	c0.4,0.7,0.8,1.1,1.6,1.1s1.4-0.4,1.6-0.8c0.7-1.1,0.4-2.9-0.1-3.9C32.3,41.5,32.2,39.9,32.2,38.8z"/>
<circle class="st0" cx="34.4" cy="30.5" r="2.7"/>
</svg>
