<?xml version="1.0" encoding="utf-8"?>
<!-- Generator: Adobe Illustrator 25.4.1, SVG Export Plug-In . SVG Version: 6.00 Build 0)  -->
<svg version="1.1" id="Layer_1" xmlns="http://www.w3.org/2000/svg" xmlns:xlink="http://www.w3.org/1999/xlink" x="0px" y="0px"
	 viewBox="0 0 68 65.2" style="enable-background:new 0 0 68 65.2;" xml:space="preserve">
<style type="text/css">
	.st0{fill:#006A71;}
</style>
<g>
	<g>
		<path class="st0" d="M24.6,10.3c-0.2,0-0.4-0.1-0.5-0.3c-0.1-0.3,0-0.7,0.3-0.8c0.2-0.1,5.2-2.5,15.5-2.9
			c10.4-0.4,13.7,2.2,13.8,2.3C54,8.8,54,9.2,53.8,9.4c-0.2,0.3-0.6,0.3-0.8,0.1c-0.1,0-3.2-2.4-13-2c-10,0.4-14.9,2.8-15,2.8
			C24.8,10.3,24.7,10.3,24.6,10.3z"/>
		<path class="st0" d="M7.6,15.1c-0.2,0-0.4-0.1-0.5-0.3S7,14.2,7.3,14c0.1-0.1,14.2-9.1,28.9-10.4S57.7,6.7,58,6.9
			c0.3,0.2,0.4,0.6,0.2,0.8C58,8,57.6,8.1,57.4,7.9c-0.1,0-6.8-4.4-21.1-3.1C21.9,6.1,8.1,14.9,8,15C7.9,15.1,7.8,15.1,7.6,15.1z"/>
		<path class="st0" d="M16.6,6.8c-0.2,0-0.4-0.1-0.5-0.3c-0.1-0.3,0-0.7,0.3-0.8c0.1,0,9.5-4.8,22.8-5.4S58.7,4,58.9,4.2
			C59.2,4.4,59.2,4.8,59,5c-0.2,0.3-0.6,0.3-0.8,0.1C58,5,52,0.8,39.1,1.4C26.1,2,16.9,6.6,16.8,6.7C16.7,6.7,16.6,6.8,16.6,6.8z"/>
		<path class="st0" d="M59.4,20.2c-0.1,0-0.1,0-0.2,0c-0.3-0.1-0.6-0.4-0.5-0.7l0.1-5.3l-4.1-2c-0.3-0.1-0.5-0.5-0.4-0.8
			s0.4-0.6,0.7-0.6l4.4-0.2L62,5.8c0.2-0.3,0.5-0.5,0.9-0.4c0.3,0.1,0.6,0.4,0.5,0.8L62.8,11l4.6,2.4c0.3,0.2,0.5,0.5,0.4,0.9
			c-0.1,0.3-0.4,0.6-0.7,0.6l-4-0.1l-3,5.1C59.9,20,59.7,20.2,59.4,20.2z M56.8,11.9l2.8,1.3c0.3,0.1,0.4,0.4,0.4,0.7l-0.1,3.8
			l2.2-3.8c0.1-0.2,0.4-0.4,0.7-0.4l2.4,0.1L62,11.9c-0.3-0.1-0.4-0.4-0.4-0.7l0.3-2.7l-1.6,2.9c-0.1,0.2-0.4,0.4-0.6,0.4L56.8,11.9
			z M59.1,14.3L59.1,14.3L59.1,14.3z"/>
	</g>
	<g>
		<path class="st0" d="M16.5,28.6c0.7,0.4,1.3,0.6,1.8,0.6c1.9,0,2.3-2.3,2.3-2.3v-0.1h0.1c0,0,0.4,0.1,0.7,0.1
			c0.3,0,0.4-0.1,0.6-0.2c0.1-0.1,0.1-0.3,0.1-0.5c-0.1-1.1,0.4-2.6,0.6-3l-4.4-2.3L16.5,28.6z M18.3,29.4c-0.6,0-1.3-0.2-2-0.6
			h-0.1l2.1-8.2l4.9,2.6v0.1c0,0-0.8,1.8-0.6,3c0,0.3,0,0.5-0.2,0.7s-0.4,0.3-0.7,0.3c-0.3,0-0.5-0.1-0.7-0.1
			C20.8,27.5,20.1,29.4,18.3,29.4z"/>
		<path class="st0" d="M20.1,18c3.8,1.2,3.6,5.2,3.6,5.2c-2.2,1.1-4.6-0.1-4.6-0.1s-3,3.7-2.7,6.4c0,0-5.9-1.8-6.2-4.4
			C13.5,17,16.1,16.7,20.1,18"/>
		<path class="st0" d="M14.4,32.8c0,0,0.3-4.1-2.5-4.9C9,27,6.3,34,4.6,41.5s2.4,9.7,4.2,9.3s12.6-2.9,12.6-2.9s2.9-1.2,2.2,2
			c-0.9,4.2-4.1,10.5-2.2,11.4c1.9,0.9,2.5-2.9,3.7-6.8c1.6-5.3,2.4-8.5,2.2-10c-0.2-1.5-0.9-2.9-4.2-2.2c-3.4,0.7-10,2-10,2
			L14.4,32.8z"/>
		<path class="st0" d="M5.4,49.8c0.2,1.1-0.3,2-1,2.1C3.7,52,3,51.3,2.8,50.2L0.2,32.9c-0.2-1.1,0.3-2,1-2.1s1.4,0.7,1.6,1.7
			L5.4,49.8z"/>
		<path class="st0" d="M20.7,52.2c0,1-0.8,1.9-1.9,1.9h-13c-1,0-1.9-0.8-1.9-1.9c0-1,0.8-1.9,1.9-1.9h13.1
			C19.9,50.3,20.7,51.2,20.7,52.2"/>
		<rect x="15.6" y="39.3" class="st0" width="30.8" height="2.5"/>
		<rect x="39.6" y="40.6" class="st0" width="3.5" height="21.9"/>
		<path class="st0" d="M32.9,33.6c0,0.7-0.4,1.3-1,1.3s-1-0.6-1-1.3V17.1c0-0.7,0.4-1.3,1-1.3c0.6,0,1,0.6,1,1.3V33.6z"/>
		<rect x="31.5" y="26.2" class="st0" width="5.3" height="1.1"/>
		<rect x="34.9" y="26.4" class="st0" width="1.9" height="10.2"/>
		<rect x="30.1" y="36.6" class="st0" width="11.3" height="1.5"/>
		<rect x="22.9" y="37" class="st0" width="3.9" height="1.2"/>
		<path class="st0" d="M4.2,62.8c0,0.9-0.8,1.7-1.7,1.7s-1.7-0.8-1.7-1.7s0.8-1.7,1.7-1.7S4.2,61.9,4.2,62.8"/>
		<path class="st0" d="M21.4,62.8c0,0.9-0.8,1.7-1.7,1.7c-0.9,0-1.7-0.8-1.7-1.7s0.8-1.7,1.7-1.7S21.4,61.9,21.4,62.8"/>
		<path class="st0" d="M1.8,61.4v-1.3c0,0,1.8-3.1,8.9-3.1s9,2.4,9.6,3.2c0.5,0.8,0,2.2,0,2.2h-1c0,0,0.1-1.9-1-2.2
			s-3.4-1.7-7.5-1.4s-6.9,1-7.5,1.8l0.1,1L1.8,61.4z"/>
		<path class="st0" d="M12.8,63.3c0,0.9-0.8,1.7-1.7,1.7s-1.7-0.8-1.7-1.7c0-0.9,0.8-1.7,1.7-1.7S12.8,62.4,12.8,63.3"/>
		<rect x="10.3" y="52.1" class="st0" width="1.5" height="10.7"/>
		<path class="st0" d="M15.2,38.5c-2.3,0.2-3.8-4.5-4.5-5.7s-1.9-3.5,0-4.1c1.9-0.7,4.1,5.5,4.8,6.8c0.7,1.3,6.7-1.5,8.2-1.6
			c1.7-0.1,2.8,0.5,2.7,0.8C26.3,35,25.3,35,25.3,35s1,0.4,0.8,0.8C26,36.2,25,35.5,25,35.5s-0.1,0.1,0.1,0.5s0.5,0.7,0.2,1
			s-1-0.6-1-0.9c0,0,0.4,0.9,0.2,1.3c-0.2,0.4-0.5,0.1-0.7-0.2s-0.7-1-0.7-1S17.5,38.3,15.2,38.5"/>
		<path class="st0" d="M27.1,44.9c0,0,0.8,4,1.3,13.7c0.3,5.4-2.3,2.8-2.7,1.5c-0.3-1.3-1.7-12.5-1.4-14.5
			C25.6,45.3,27.1,44.9,27.1,44.9"/>
	</g>
</g>
</svg>
