<?xml version="1.0" encoding="utf-8"?>
<!-- Generator: Adobe Illustrator 25.4.1, SVG Export Plug-In . SVG Version: 6.00 Build 0)  -->
<svg version="1.1" id="Layer_1" xmlns="http://www.w3.org/2000/svg" xmlns:xlink="http://www.w3.org/1999/xlink" x="0px" y="0px"
	 viewBox="0 0 70 70" style="enable-background:new 0 0 70 70;" xml:space="preserve">
<style type="text/css">
	.st0{fill:#006A71;}
</style>
<g>
	<path class="st0" d="M45,31.7l0.9,4.9c0,0.7,0.6,1.3,1.3,1.3h4.8c0.7,0,1.3-0.6,1.3-1.3l0.9-4.9c0-0.7-0.6-1.3-1.3-1.3h-6.6
		C45.5,30.4,45,31,45,31.7z"/>
	<path class="st0" d="M49.8,39.4c-1.6,0-3,0.3-4.4,0.9c-1.2-2.5-2.3-5-2.9-6.6c-0.3-0.8-0.6-1.4-0.8-1.8c0-0.2,0.1-1.3-1-1.5
		c-1.3-0.3-5.8-0.2-7.6-1.4c-0.8-0.5-1.9-1.8-2.9-3c4.7,0.2,5.9-1.4,5.7-2c-0.2-0.7-0.7-2-2.6-0.6c-1.5,1.1-4.1,0.3-5.2-0.2
		c-0.1-0.2-0.3-0.3-0.3-0.4c-0.5-0.5-0.9-1.6-2.5-0.8c-1.6,0.8-1.7,2.5-1.7,2.5c0,0.6-1.1,10-1.1,10S22.2,36,24,37.2
		c1.7,1.2,9.3,5.8,9.3,5.8s0.1,0,0.1,0.1c-1.1,1-2.4,2.1-4,3c-1.6-3.9-5.4-6.6-9.9-6.6c-5.9,0-10.7,4.8-10.7,10.7
		s4.8,10.7,10.7,10.7S30.2,56,30.2,50.1c0-0.6-0.1-1.2-0.1-1.8c1.1-0.7,2.3-1.5,3.6-2.4c-0.1,2.9-0.2,8.4-0.2,8.4s-0.3,1.4,0.1,1.7
		c0.4,0.3,1.2,0.6,1.6-0.9c0.5-1.5,2.1-11.4,2.1-11.4s0.2-0.7,0.2-1.4c2-2.4,3.1-4.5,3.6-6.1c0,0,0,0,0,0c0.6,1.7,1.5,3.5,2.4,5.3
		c-2.6,2-4.2,5-4.2,8.5c0,5.9,4.8,10.7,10.7,10.7S60.5,56,60.5,50.1S55.7,39.4,49.8,39.4z M19.5,58.5c-4.6,0-8.3-3.7-8.3-8.3
		s3.7-8.3,8.3-8.3c3.6,0,6.6,2.2,7.8,5.4c-2.1,1-4.4,1.7-7.2,2.1c0,0-1.6-0.5-1.8,0.9c-0.2,1.4,0.9,1.4,2.2,1.3
		c0.8-0.1,3.6-0.3,7.3-2c0,0.2,0,0.4,0,0.6C27.9,54.7,24.1,58.5,19.5,58.5z M38,37.2c-0.4,0.8-1,1.8-1.9,3c-2.3-2-7.8-6.7-7.8-6.7
		v-4.7c0,0,1.9,2.1,4.3,3c2.4,0.9,6.8,0.1,6.8,0.1C39.1,33,39.1,35,38,37.2z M49.8,58.5c-4.6,0-8.3-3.7-8.3-8.3c0-2.6,1.2-4.9,3-6.4
		c1.7,3.1,3.4,5.7,3.7,6.2c0.6,1,1.9,2.1,2.6,1c0.7-1.1-0.1-1.3-1.8-3.9c-0.7-1-1.6-2.7-2.5-4.6c1-0.4,2.1-0.7,3.3-0.7
		c4.6,0,8.3,3.7,8.3,8.3S54.5,58.5,49.8,58.5z"/>
	<path class="st0" d="M42.4,25.1c1.2,0,2.1-1,2.1-2.1c0-1.2-1-2.1-2.1-2.1c-1.2,0-2.1,1-2.1,2.1C40.2,24.2,41.2,25.1,42.4,25.1z"/>
	<path class="st0" d="M37.5,26.6c0,0.9,0.8,0.7,0.8,0.7s10.7-0.1,11.4,0c0.7,0.1,0.6-0.7,0.6-0.7v-5.7c0-1.6-2.6-1.5-2.6-1.5v-0.9
		h-2.2v0.8l-0.7-0.1c-0.5-1.5-1.3-2.2-2.8-2.1c-1.5,0.1-2.1,2-2.1,2c-2.5,0.6-2.3,2.2-2.3,2.2V26.6z M47.8,20H49v0.7h-1.2V20z
		 M42.4,19.2c2.1,0,3.8,1.7,3.8,3.8c0,2.1-1.7,3.8-3.8,3.8c-2.1,0-3.8-1.7-3.8-3.8C38.6,20.9,40.3,19.2,42.4,19.2z"/>
	<path class="st0" d="M26.3,21.3c0.1-0.1,0.2-0.3,0.4-0.4c0.3,0.1,0.7,0.2,1,0.2c2.1,0,3.9-1.7,3.9-3.9c0-0.2,0-0.4-0.1-0.7l0.2,0
		c-2.1-8.2-11-2.2-8.6,2.4C24.2,21,26.3,21.3,26.3,21.3z M31.2,17.2c0,1.9-1.6,3.5-3.5,3.5c-0.3,0-0.5,0-0.7-0.1
		c2-2.4,2.5-4.5,2.5-4.5l1.6,0.3C31.1,16.7,31.2,16.9,31.2,17.2z"/>
</g>
</svg>
